<?xml version="1.0" encoding="UTF-8"?><svg id="Layer_2" xmlns="http://www.w3.org/2000/svg" viewBox="0 0 569.94 532.81"><defs><style>.cls-1{fill:#231f20;}</style></defs><g id="_2Color_logo"><path class="cls-1" d="M569.94,415.7l-8.1-2.72c-32.4-10.87-88.03-22.35-134.42-24.51,10.86-7.7,16.13-18.65,18.47-25.33,15.78-8.77,22.91-21.51,26-32.8.22.05.44.07.65.07,1.06,0,2.09-.58,2.6-1.58,5.85-11.28,13.55-28.31,17.58-40.92.25-.79.15-1.65-.26-2.37,7.48-11.79,8.68-23.26,7.39-32.83.66-.46,1.1-1.18,1.21-2.01.92-7.3,1.5-14.73,1.72-22.03.08-2.38.12-4.82.12-7.26,0-.56,0-1.13,0-1.7.06-.24.1-.49.09-.74-.3-15.93-2.22-31.81-5.7-47.23-.13-.54-.41-1.01-.78-1.39-.55-18.26-11.25-30.65-18.19-36.81-1.01-24.17-18.48-37.21-26.17-41.78-5.55-16.61-17.46-25.21-27.33-29.61-6.51-8.69-14.36-14.03-22.06-17.27-8.41-12.13-18.32-18.45-27.83-21.47-.04-.03-.07-.06-.11-.09-10.76-7.98-36.93-15.76-54.04-17.8-8.87-4.26-25.37-5.51-35.44-5.51-7.26,0-22.6.57-32.96,5-15.8.06-48.87,9.09-61.33,18.31-.04.03-.06.06-.1.09-9.51,3.02-19.43,9.33-27.83,21.47-7.69,3.25-15.55,8.59-22.06,17.27-9.86,4.4-21.77,13-27.33,29.61-7.68,4.58-25.16,17.61-26.16,41.78-6.95,6.17-17.65,18.56-18.2,36.81-.37.38-.66.86-.77,1.39-3.49,15.41-5.41,31.3-5.71,47.23,0,.25.04.51.09.74v1.7c0,2.45.04,4.89.11,7.25.22,7.31.8,14.73,1.73,22.04.1.83.56,1.55,1.2,2.01-1.28,9.57-.08,21.04,7.4,32.83-.42.72-.52,1.57-.27,2.37,4.04,12.61,11.73,29.64,17.58,40.92.52,1,1.54,1.58,2.61,1.58.21,0,.43-.03.65-.08,3.08,11.29,10.21,24.03,25.99,32.81,2.37,6.75,7.71,17.83,18.78,25.53-45.6,2.58-99.11,13.73-130.65,24.31l-8.1,2.72,36.87,12.93-11.07,31.58,5.79-2.09c29.38-10.61,86.95-21.97,125.81-21.97,29.91,0,59.43,3.68,85.35,10.61l10.56,2.83-23.7-23.69c16.96-5.03,35.68-7.83,55.35-7.83s38.39,2.8,55.34,7.83l-23.7,23.69,10.56-2.83c25.91-6.93,55.43-10.61,85.35-10.61,38.86,0,96.42,11.36,125.81,21.97l5.79,2.09-11.07-31.58,36.87-12.93ZM442.07,358.9c-.54,1.88-1.41,4.5-2.78,7.45-1.56,3.38-3.77,7.2-6.85,10.85-3.29,3.9-7.07,7.05-11.33,9.46-6.29-3.03-12.83-5.83-19.57-8.4h0c-1.46-.57-2.95-1.13-4.43-1.66.67-.93,1.4-1.86,2.18-2.78.22-.26.45-.52.67-.78,5.27-5.96,11.67-10.24,19.14-12.83.46-.16.94-.32,1.41-.46,1.9-.6,3.87-1.09,5.91-1.47,1.47-.27,2.98-.5,4.52-.66,3.65-.4,7.5-.47,11.53-.24-.1.43-.24.95-.4,1.53ZM375.8,354.19c0-.11,0-.22-.04-.33-.05-.26-.13-.53-.21-.74-.04-.13-.08-.24-.14-.36-.18-.36-.38-.67-.6-.9l-.14-.23-.23-.15-.12-.13-.16-.08c-.29-.22-.61-.38-.93-.52l-.29-.09c-.36-.11-.73-.17-1.07-.18,6.23-5.08,10.29-11.02,12.9-16.87.55-1.2,1.02-2.39,1.45-3.58,3.91-2.66,8.36-4.83,13.34-6.53.9-.31,1.83-.6,2.77-.87,1.14-.34,2.29-.65,3.48-.94.39-.1.8-.19,1.2-.28.12,2.6.09,8.16-1.62,14.67-.25.99-.55,1.99-.89,3.02-.43,1.29-.93,2.62-1.51,3.95-.04.06-.06.14-.09.2-.96,2.16-2.07,4.19-3.31,6.09-3.39,5.18-7.83,9.42-13.32,12.74-2.09,1.26-4.32,2.39-6.7,3.38h0c-1.3.54-2.64,1.05-4.03,1.5-1.36.64-2.54,1.1-3.55,1.41,2.67-6.31,3.55-11.53,3.76-13.02v-.03c.06-.3.08-.61.07-.93l-.02-.2ZM251.24,356.96c-.05.32-.04.68,0,1.08.02.13.05.25.08.38.06.21.14.47.25.72,0,.04.03.06.04.09-6.45.61-12.84,1.41-19.17,2.37-2.57-1.66-4.94-3.62-7.09-5.86-1.1-1.13-2.14-2.34-3.13-3.61-.06-.09-.14-.17-.2-.26h0c-6.12-8.06-8.3-16.56-9-19.97.57,0,1.14-.02,1.7,0,1.91,0,3.77.08,5.58.24,7.66.62,14.48,2.49,20.44,5.61,4.09,2.14,7.79,4.87,11.05,8.18,1.06,1.06,2.08,2.2,3.06,3.4.66.81,1.27,1.63,1.85,2.44-1.13.68-2.26,1.41-3.41,2.17-.08.06-.18.1-.26.16-.32.21-.63.48-.9.82l-.18.25c-.21.28-.36.6-.49.95l-.09.15-.03.17-.1.25v.26ZM195.17,355.48c.97,0,1.94.04,2.88.09,1.36.06,2.7.17,4.01.31.4.05.79.09,1.18.14,7.32.92,13.84,2.98,19.5,6.19h0c.46.25.9.52,1.35.79-6.47,1.15-12.85,2.47-19.14,3.99-1.91.46-3.8.93-5.68,1.43-.13-.25-.25-.51-.35-.76h0c-2.38-5.28-3.37-9.88-3.76-12.17ZM190.13,355.32v.03c.21,1.49,1.07,6.7,3.76,13.02-1.01-.31-2.18-.77-3.55-1.41-1.38-.46-2.73-.96-4.03-1.5-2.38-.98-4.62-2.1-6.7-3.37-5.49-3.31-9.94-7.56-13.34-12.74-1.25-1.9-2.35-3.94-3.31-6.09-.03-.07-.06-.14-.09-.21-.58-1.33-1.08-2.65-1.51-3.94-.35-1.03-.65-2.04-.9-3.03-1.7-6.51-1.72-12.06-1.6-14.66.4.09.81.18,1.2.28,1.19.29,2.35.6,3.48.94.95.27,1.86.56,2.77.88,4.97,1.69,9.41,3.87,13.33,6.52.42,1.18.89,2.37,1.44,3.58,2.61,5.86,6.67,11.8,12.91,16.88-.35,0-.71.07-1.08.18l-.28.09c-.33.14-.64.3-.93.52l-.16.08-.12.13-.23.15-.15.23c-.22.23-.42.54-.59.9-.05.12-.1.23-.15.36-.07.21-.14.47-.2.74-.03.11-.04.22-.04.33v.2c-.03.32,0,.63.06.93ZM136.77,334.88c.63.05,1.25.12,1.87.19.37.04.75.08,1.11.13,3.7.46,7.18,1.19,10.46,2.16,2.15.64,4.21,1.38,6.17,2.24.15.47.3.95.46,1.44,1.5,4.42,3.75,9.08,7.08,13.5,4.42,5.87,10.76,11.32,19.82,15.2.04.07.08.14.12.21.07.12.14.25.21.37.04.08.08.16.11.25.08.18.14.35.19.53.01.05.03.09.04.14.05.19.08.39.11.58,0,.05.01.11.02.16.02.24.02.48,0,.72-4.11,1.28-7.48,2.41-10.09,3.33-.01,0-.02.02-.03.03,0,0,0,0-.01-.01,0,0,0,0,0,0l-.16-.16s-.03-.03-.04-.04c-5.05-7.66-13.3-16.07-26.37-20.48-.04-.01-.08-.03-.12-.04-.08-.03-.16-.05-.24-.07-.8-.26-1.62-.52-2.46-.75h0c-.8-.22-1.61-.43-2.43-.62-2.24-4.08-3.62-8.08-4.48-11.45h0c-.85-3.28-1.19-5.97-1.33-7.55ZM149.24,200.7l-.74-.19c-.16-.04-.31-.07-.46-.12,3.82-8.69,6.05-19.89,3.02-33.25,8.2-7.58,16.05-19.38,17.04-37.09,6.6-5.57,12.76-13.43,16.58-24.5,9.22-3.78,18.96-10.67,26.42-23.06,12.06-.56,26.66-5.17,39.69-20.05,7.81,2.93,15.92,5.51,24.07,7.53,3.66,2.45,7.4,3.67,11.23,3.67,4.3,0,8.39-2.12,12.23-5.63,5.69-1.64,11.31-3.53,16.78-5.58,13.04,14.88,27.63,19.48,39.69,20.05,7.47,12.39,17.19,19.28,26.42,23.06,3.82,11.07,9.98,18.93,16.58,24.5.98,17.71,8.83,29.51,17.04,37.09-3.03,13.36-.81,24.56,3.01,33.25-.16.04-.31.08-.46.12l-.73.19c-1.22.31-2.1,1.36-2.2,2.6-.04.36,0,.72.11,1.06-.03.21-.05.41-.05.64,0,10.79-1.22,21.51-3.61,31.96-.02.06-.05.11-.06.17-2.43,9.25-6.83,22.49-11.19,31.22-.47.96-.39,2.09.21,2.98.42.6.83,1.2,1.25,1.8-13.96,9.17-20.37,20.62-23.05,30.96-15.25,5.34-24.35,14.03-29.75,22.93-8.38.33-15.44,1.99-21.39,4.48-6.61-18.99-17.09-55.93-23.1-112.17,0,0-5.53-49.76-4.15-61.43h-.04c0-1.72-.06-9-2.09-9h-1.12c18.07-6,18.58-22.48,18.59-22.68l.05-2.54h-30.09c.23-.09,16.5-6.45-.01-37.73-16.51,31.28-.24,37.65-.01,37.73h-30.09l.05,2.54c0,.2.53,16.67,18.59,22.68h-1.11c-2.04,0-2.12,9-2.12,9,0,.12.03.24.03.36h0s0,0,0,0c1.23,12.29-4.2,61.06-4.2,61.06-6.18,57.88-17.09,95.32-23.65,113.78-6.62-3.37-14.8-5.71-24.88-6.1-5.41-8.91-14.52-17.58-29.75-22.93-2.68-10.33-9.09-21.79-23.04-30.96.42-.6.83-1.2,1.25-1.8.6-.88.68-2.02.2-2.98-4.36-8.72-8.76-21.97-11.19-31.22,0-.06-.04-.11-.05-.17-2.4-10.45-3.62-21.18-3.62-31.96,0-.23-.02-.43-.04-.64.1-.34.14-.69.12-1.06-.1-1.25-.99-2.29-2.2-2.6ZM116.21,190.76c-4.94-1.87-10.23-4.09-16.07-6.8,3.93-7.35,6.82-16.75,6.09-28.13,5.8-8.19,12.82-13.11,15.86-15,2.32,5.81,3.86,11.46,4.65,16.93-5.7,7.51-11.34,18.7-10.53,33.01ZM122.72,134.74c2.54-6.14,4.14-13.41,3.93-21.87.02-.03.05-.05.07-.08,8.02-8.38,17.35-12.3,21.09-13.64,1.06,6.37,1.36,12.38.91,18.04-7.31,4.53-15.83,12.02-20.58,23.8-.37-1.01-.76-2.03-1.18-3.06-.05-.11-.06-.22-.13-.33-.16-.41-.4-.81-.71-1.18l-.21-.26c-.28-.28-.59-.54-.95-.75l-.16-.14-.17-.07-.26-.16-.3-.05c-.34-.12-.74-.21-1.2-.23-.05,0-.1,0-.15,0ZM125.36,169.71c4.53-9.62,11.46-15.77,14.32-18.04,8.85,16.54,10.08,32.29,3.67,46.8-.09.22-.2.43-.29.65-6.86-1.78-13.79-3.7-21.57-6.43-.86-7.94.42-15.62,3.87-22.98ZM143.82,148.53c-.04-.08-.09-.19-.15-.27-.18-.35-.44-.7-.76-1.02l-.22-.21c-.3-.24-.61-.42-.95-.59l-.15-.1-.17-.05-.25-.12-.28-.03c-.33-.08-.69-.11-1.12-.09-.14,0-.26.03-.39.05-.23.05-.51.1-.77.19-.13.03-.23.07-.33.13l-.18.08c-.29.13-.56.32-.81.54h-.02c-.86.65-3.1,2.41-5.84,5.23-.19-.88-.39-1.77-.62-2.67,1.85-8.2,5.79-15.32,11.84-21.27,7.59-7.47,16.23-10.82,19.69-11.94,2.56,18.57-1.76,33.78-12.8,45.17-.02,0-.03.02-.04.04-1.36-4.17-3.22-8.52-5.69-13.06ZM218.46,63.16l-.04-.19-.08-.15-.09-.28-.18-.22c-.17-.3-.42-.61-.73-.9-.11-.1-.21-.18-.32-.26-.18-.15-.43-.31-.68-.45-.11-.06-.22-.12-.34-.14l-.19-.08c-.32-.13-.65-.21-.97-.23h-.03c-1.6-.28-7.26-1.08-14.65-.37.1-.09.2-.18.29-.27,4.72-2.08,9.49-4.99,14.09-9.03,1.93-.77,3.9-1.39,5.93-1.88,7.56,4.08,16.06,8.11,25.07,11.73-8.98,9.71-19.53,15.3-31.5,16.66,1.6-3.29,3.06-6.9,4.32-10.86.04-.11.09-.21.12-.31.13-.39.2-.84.21-1.29v-.32c-.04-.38-.11-.76-.24-1.14ZM213.06,65.35c-5.27,15.96-14.16,27.2-26.48,33.54,1.02-4.39,1.7-9.21,1.94-14.5,0-.11.02-.22.02-.33.03-.42-.02-.87-.13-1.33l-.09-.31c-.13-.36-.3-.71-.52-1.04l-.08-.19-.13-.12-.16-.25-.24-.18c-.25-.25-.57-.47-.96-.69-.13-.06-.25-.11-.37-.16-.23-.09-.52-.19-.79-.25-.12-.03-.24-.05-.35-.06l-.22-.03c-.35-.03-.68,0-1.02.05h0c-1.79.17-8.44,1-16.31,4.27,5.66-7.79,13.05-13.25,22.15-16.29,10.46-3.47,20.01-2.67,23.75-2.13ZM183.09,84.95c-.86,15.85-5.9,28.54-14.98,37.84-.13-2.54-.37-5.17-.77-7.92-.02-.1-.03-.21-.04-.32-.04-.39-.16-.81-.35-1.21l-.15-.28c-.17-.31-.4-.61-.66-.87l-.12-.15-.15-.1-.18-.21-.25-.1c-.27-.2-.63-.36-1.02-.48-.14-.05-.26-.06-.39-.09-.22-.05-.51-.08-.78-.1-.11,0-.24,0-.34,0h-.22c-.32.05-.64.13-.93.24h-.03c-1.01.29-3.71,1.17-7.22,2.84.14-4.63-.17-9.62-1.02-15,2.1-2.09,4.43-4,7-5.71,9.29-6.17,18.83-7.89,22.62-8.37ZM465.75,183.96c-5.85,2.71-11.14,4.93-16.07,6.8.82-14.31-4.82-25.5-10.52-33.01.78-5.47,2.33-11.12,4.64-16.93,3.05,1.89,10.05,6.81,15.86,15-.73,11.38,2.16,20.78,6.09,28.13ZM444.38,192.69c-7.78,2.73-14.7,4.65-21.56,6.43-.1-.22-.2-.43-.3-.65-6.39-14.51-5.17-30.26,3.68-46.8,2.85,2.26,9.78,8.41,14.32,18.04,3.45,7.36,4.73,15.04,3.86,22.98ZM442.99,134.75c-.45.02-.86.11-1.2.23l-.3.05-.25.16-.17.07-.17.14c-.35.21-.65.46-.95.75l-.21.26c-.31.37-.54.77-.71,1.18-.06.11-.08.22-.13.33-.42,1.03-.8,2.05-1.17,3.06-4.76-11.78-13.26-19.27-20.58-23.8-.44-5.66-.14-11.67.92-18.04,3.75,1.35,13.06,5.27,21.1,13.64.03.03.04.06.07.08-.22,8.46,1.38,15.73,3.93,21.87-.06,0-.11,0-.16,0ZM423.22,128.32c6.05,5.95,9.99,13.06,11.83,21.27-.22.9-.43,1.79-.61,2.67-2.74-2.82-4.99-4.58-5.85-5.22h0c-.25-.23-.52-.41-.81-.54l-.19-.08c-.11-.05-.21-.1-.33-.13-.25-.09-.54-.14-.76-.19-.13-.02-.25-.04-.39-.05-.43-.02-.8,0-1.12.09l-.28.03-.25.12-.16.05-.16.1c-.33.17-.65.35-.94.59l-.23.21c-.32.32-.58.66-.76,1.02-.06.08-.1.19-.15.27-2.48,4.54-4.35,8.9-5.69,13.06-.02-.02-.03-.03-.04-.04-11.03-11.4-15.35-26.6-12.81-45.17,3.47,1.13,12.11,4.47,19.7,11.94ZM411.38,114.03c-3.5-1.67-6.2-2.55-7.22-2.85h-.03c-.29-.1-.6-.18-.93-.22h-.21c-.12-.02-.24-.03-.35-.02-.28.02-.56.04-.79.1-.12.03-.25.05-.38.09-.39.12-.75.28-1.02.48l-.25.1-.19.21-.15.1-.12.15c-.26.26-.48.56-.66.87l-.15.28c-.2.4-.31.82-.36,1.21-.02.11-.02.22-.04.32-.4,2.75-.66,5.38-.77,7.92-9.09-9.3-14.12-21.99-14.98-37.84,3.78.47,13.33,2.19,22.61,8.37,2.57,1.71,4.9,3.62,7.01,5.71-.85,5.38-1.16,10.37-1.03,15ZM382.41,79.49h0c-.34-.04-.68-.06-1.02-.04l-.22.03c-.12,0-.24.04-.36.06-.27.06-.55.16-.78.25-.14.05-.25.1-.37.16-.39.22-.71.45-.96.69l-.24.18-.16.25-.13.12-.08.19c-.23.33-.4.67-.52,1.04l-.09.31c-.12.46-.16.91-.14,1.33,0,.11.02.22.03.33.24,5.29.91,10.11,1.93,14.5-12.31-6.34-21.2-17.58-26.48-33.54,3.75-.54,13.3-1.35,23.75,2.13,9.1,3.04,16.49,8.5,22.15,16.29-7.87-3.27-14.52-4.1-16.3-4.28ZM351.06,60.24h-.02c-.34.03-.66.11-.98.24l-.19.08c-.12.03-.23.08-.34.14-.25.14-.49.3-.68.45-.11.08-.21.16-.31.26-.32.29-.56.6-.73.9l-.19.22-.09.28-.07.15-.05.19c-.12.37-.2.75-.23,1.14v.32c.01.46.07.9.21,1.29.02.1.07.2.11.31,1.27,3.97,2.73,7.57,4.33,10.86-11.97-1.36-22.52-6.94-31.5-16.66,9.01-3.62,17.51-7.65,25.07-11.73,2.02.49,4,1.11,5.92,1.88,4.61,4.04,9.38,6.95,14.09,9.03.1.09.19.18.29.27-7.38-.71-13.04.09-14.64.36ZM411.91,320.24v-.02c0-.31-.04-.62-.12-.92l-.06-.2c-.02-.1-.06-.21-.1-.31-.11-.25-.24-.49-.35-.68-.06-.11-.13-.21-.22-.31-.25-.33-.51-.58-.77-.76l-.18-.19-.25-.11-.15-.09-.18-.05c-.33-.16-.67-.25-1.03-.3l-.18-.03c3.73-4.76,6.14-9.72,7.65-14.56h0c1.42-1.75,2.97-3.42,4.64-5.01,6.07,6.19,12.44,11.69,19.11,16.51-.45,1.78-1.01,3.52-1.66,5.21-3.8,3.67-6.79,7.57-9.14,11.51-6.83.57-12.78,1.91-17.95,3.8,1.29-6.72,1.06-11.98.95-13.49ZM413.26,288.73c-.09,2.04-.31,4.18-.72,6.4-.15.78-.31,1.56-.49,2.33-1.78,7.38-5.37,13.83-10.72,19.31-.48.49-.97.98-1.49,1.46-4.36,1.35-8.23,3-11.67,4.88,1.77-8.52,1.12-15.44.9-17.2h0c-.02-.33-.07-.63-.15-.93l-.08-.19c-.03-.11-.07-.21-.13-.31-.11-.24-.26-.47-.38-.65-.07-.11-.15-.21-.25-.3-.25-.31-.52-.56-.8-.73l-.19-.18-.25-.09-.15-.09-.19-.04c-.33-.14-.67-.22-1.03-.25l-.3-.02c-.44-.02-.85.04-1.22.15-.09.02-.16.05-.25.08,3.38-10.17,10.2-18.61,20.32-25.19,2.98,4.06,6.07,7.92,9.26,11.58h0ZM182.2,302.33c-.09-.04-.17-.06-.26-.08-.36-.11-.78-.16-1.21-.15l-.3.02c-.36.04-.7.12-1.04.25l-.18.04-.14.09-.26.09-.2.18c-.27.16-.54.42-.8.73-.09.09-.16.19-.24.3-.13.18-.27.42-.38.65-.06.1-.1.2-.14.31l-.07.19c-.08.3-.15.6-.16.92h0c-.22,1.77-.87,8.7.9,17.22-3.45-1.87-7.32-3.53-11.68-4.88-.51-.47-1-.95-1.47-1.44-5.38-5.49-8.97-11.96-10.74-19.34-.18-.76-.35-1.53-.49-2.31-.41-2.21-.63-4.36-.71-6.39,3.16-3.67,6.26-7.52,9.26-11.59,10.12,6.58,16.93,15.02,20.32,25.18ZM157.56,316.26l-.19.03c-.35.05-.69.14-1.03.3l-.18.05-.14.09-.25.11-.18.19c-.26.18-.52.44-.77.76-.08.1-.15.2-.21.31-.12.19-.25.44-.35.68-.06.1-.08.21-.11.31l-.06.2c-.07.3-.12.61-.11.92v.02c-.12,1.51-.35,6.77.94,13.48-5.17-1.88-11.12-3.22-17.95-3.8-2.36-3.93-5.34-7.82-9.13-11.49-.66-1.69-1.21-3.43-1.67-5.22,6.65-4.82,13.03-10.33,19.11-16.5,1.67,1.59,3.23,3.27,4.65,5.01,1.51,4.83,3.92,9.8,7.64,14.55ZM186.5,333.59h0c-.69-1.37-1.32-2.78-1.88-4.24-.31-.82-.59-1.63-.85-2.44-.63-1.97-1.09-3.89-1.44-5.72-1.16-6.21-.92-11.4-.67-13.87.68.19,1.36.39,2.03.6,1.83.56,3.59,1.19,5.29,1.87,9.8,3.92,17.4,9.67,22.71,17.18-.34,0-.69.07-1.05.2l-.27.11c-.34.14-.65.31-.93.54l-.16.09-.11.13-.23.16-.13.23c-.22.24-.41.55-.57.92-.05.12-.09.25-.13.36-.07.21-.15.47-.18.75-.03.1-.04.23-.04.34l-.02.2c0,.31.05.62.12.92v.02c.37,2.22,2.48,12.67,9.86,22.58-4.21-1.6-8.95-2.79-14.28-3.44-.81-.46-1.6-.93-2.37-1.43-6.43-4.12-11.33-9.48-14.71-16.05ZM259.37,355.96c1.43-.85,2.86-1.65,4.28-2.37,12.77-6.47,25.41-7.65,37.68-3.49.84.28,1.65.59,2.44.91-1.25,1.96-2.32,3.88-3.21,5.69-2.6.29-5.16.64-7.33,1.04-2.75-.06-5.5-.1-8.26-.1-6.34,0-12.67.17-18.97.52-1.76.09-3.53.2-5.29.33-1.01.06-2.01.14-3.02.22-.4-.39-.75-.75-1.04-1.05.9-.59,1.81-1.16,2.71-1.69ZM261,349.38c-.88-1.27-1.86-2.55-2.92-3.82h.13c8.99-19.44,26.98-183.62,26.98-183.62,0,0,16.16,151.12,25.4,180.55-1.44,1.45-2.73,2.94-3.89,4.43h0c-11.15-4.76-27-7.13-45.68,2.46ZM306.4,356.13c.56-1,1.19-2.02,1.87-3.06.83-1.24,1.74-2.49,2.75-3.75.06-.08.13-.16.2-.24.98-1.2,2.01-2.33,3.08-3.39,4.1-4.1,8.87-7.3,14.26-9.57,5.1-2.16,10.78-3.49,17-3.99,1.81-.15,3.67-.23,5.58-.24.55,0,1.13,0,1.69,0-.68,3.4-2.86,11.89-8.98,19.94-.07.1-.15.19-.22.29-.98,1.27-2.02,2.47-3.12,3.6-1.95,2.03-4.08,3.82-6.37,5.38-3.05-.44-6.11-.84-9.2-1.18-6.5-.76-13.07-1.32-19.68-1.69.34-.68.71-1.39,1.12-2.11ZM343.11,362.2h0c5.67-3.2,12.18-5.27,19.5-6.19l1.17-.14c1.31-.14,2.66-.25,4.02-.31.96-.05,1.92-.08,2.89-.09-.38,2.27-1.36,6.8-3.68,12.01h0c-.06-.02-.12-.04-.18-.04-1.95-.48-3.9-.95-5.87-1.39-6.01-1.37-12.11-2.57-18.28-3.6.15-.08.29-.16.43-.25ZM364.67,349.64c-.76.5-1.56.97-2.37,1.43-5.33.65-10.07,1.85-14.27,3.44,7.38-9.91,9.49-20.36,9.86-22.58v-.02c.07-.3.12-.61.11-.92l-.02-.2c0-.11,0-.24-.03-.34-.04-.27-.11-.54-.18-.75-.05-.12-.07-.25-.14-.36-.16-.36-.35-.68-.56-.92l-.14-.23-.22-.16-.11-.13-.17-.09c-.28-.23-.59-.4-.92-.54l-.27-.11c-.35-.13-.71-.19-1.05-.2,5.31-7.51,12.92-13.25,22.71-17.17h0c1.69-.68,3.46-1.3,5.29-1.87h0c.67-.21,1.34-.41,2.03-.6.24,2.47.49,7.65-.68,13.87-.34,1.83-.81,3.75-1.44,5.71-.25.81-.54,1.63-.86,2.45-.56,1.46-1.19,2.87-1.88,4.23h0c-3.37,6.58-8.28,11.93-14.7,16.06ZM382.14,369.74c9.06-3.88,15.39-9.33,19.81-15.2,3.33-4.42,5.58-9.08,7.08-13.5.16-.48.32-.95.46-1.43,4.96-2.17,10.52-3.64,16.63-4.4h0c.36-.05.74-.1,1.11-.14.62-.07,1.25-.14,1.87-.19-.14,1.58-.49,4.26-1.32,7.53-.87,3.37-2.26,7.39-4.49,11.47-.83.19-1.64.4-2.44.63-14.16,3.92-23.09,12.47-28.54,20.41-3.58-1.24-7.21-2.4-10.89-3.5.12-.57.36-1.14.72-1.68ZM465.46,332.45c-3.42,9.63-9.42,17.37-17.93,23.18-.02-.08-.05-.16-.06-.24-.04-.12-.06-.25-.12-.36-.14-.38-.32-.7-.52-.94l-.13-.25-.22-.16-.11-.14-.15-.1c-.28-.24-.58-.43-.9-.57l-.28-.12c-.4-.15-.81-.25-1.18-.26-.11,0-.21,0-.31,0-5.18-.36-9.92-.21-14.25.35,3.16-6.94,4.27-13.29,4.65-16.56.11-.86.15-1.5.18-1.89v-.02c.04-.31.04-.62,0-.93l-.04-.2c0-.11-.03-.23-.06-.34-.05-.17-.11-.35-.17-.51,2.51-4.11,5.58-7.82,9.22-11.09h0c1.22-1.12,2.51-2.18,3.87-3.18,6.36,4.01,12.95,7.43,19.78,10.25-.35,1.35-.76,2.71-1.25,4.09ZM473.94,318.09c-.96,1.99-1.91,3.91-2.82,5.71-1.07-.42-2.14-.86-3.2-1.31-5.34-2.26-10.53-4.92-15.58-7.97-1.76-1.05-3.48-2.16-5.19-3.31-.34-.21-.67-.44-1-.67-1.75-1.19-3.48-2.43-5.19-3.73-5.51-4.16-10.82-8.83-15.92-13.98-1.35-1.36-2.67-2.76-3.97-4.18-.97-1.04-1.92-2.09-2.86-3.17-1.86-2.13-3.68-4.32-5.49-6.59-1.22-1.54-2.44-3.13-3.63-4.74-.99-1.33-1.97-2.68-2.94-4.06-.16-.23-.32-.46-.48-.69,3.47-7.31,6.67-16.49,8.98-24.15,8.47,12.09,23.1,21.97,31.84,27.18,13.32,7.93,28.41,14.32,39.61,16.83-3.13,9.02-7.79,19.75-12.14,28.83ZM426.29,249.91c4.63,1.17,9.28,2.15,13.93,2.95-.67,2.28-1.55,4.5-2.62,6.65-4.29-3.16-8.1-6.38-11.31-9.6ZM441.99,262.6c1.02-3.06,2.36-6,4.04-8.83,7.24,1.02,14.47,1.62,21.7,1.76.02.7.02,1.41,0,2.14-.16,6.14-1.57,11.88-4.19,17.19-4.72-2.23-9.49-4.75-14.05-7.47-2.63-1.57-5.11-3.17-7.49-4.78ZM487.62,283.58c-5.37-1.17-11.75-3.34-18.43-6.18-.09-.66-.18-1.32-.25-2,0-.14-.02-.28-.03-.43,2.92-6.78,3.84-13.44,3.72-19.42,7.53-.08,14.99-.66,22.25-1.72,1.29,10.57-1.15,20.52-7.26,29.75ZM496.92,228.49c-.19,6.4-.66,12.89-1.42,19.3-7.99,1.25-16.26,1.89-24.62,1.89-17.93,0-36.05-2.87-53.84-8.5-.35-.11-.68-.23-1.03-.34,2.66-10.72,4.1-21.74,4.33-32.84,8.31,3.48,15.57,5.99,23.04,7.96,15.75,4.16,31.63,6.27,47.2,6.27,2.16,0,4.31-.06,6.45-.15,0,2.15-.04,4.29-.11,6.4ZM497.04,216.23c-17.11.67-34.72-1.34-52.17-5.94-6-1.58-11.86-3.52-18.32-6.08,17.15-4.53,35.25-10.34,65.83-27.33,2.68,12.89,4.25,26.1,4.66,39.34ZM486.08,151.16c3.38,6.19,5.14,12.72,5.3,19.56-7.77,4.36-14.73,7.99-21.06,11.06-.15-.26-.29-.53-.44-.8-7.29-14.09-7.01-29.89.79-46.94,2.99,2.08,10.3,7.8,15.4,17.12ZM464.95,110.05c4.24,5.84,6.85,12.26,7.82,19.21-.25-.2-.53-.36-.83-.48l-.19-.07c-.11-.04-.22-.08-.34-.11-.26-.07-.55-.11-.77-.14-.13,0-.27-.02-.4-.02-.42,0-.79.06-1.1.16l-.28.04-.25.15-.16.04-.16.12c-.32.18-.63.41-.88.65l-.22.22c-.3.34-.55.7-.71,1.06-.04.08-.07.2-.12.28-2.83,6.02-4.65,11.68-5.7,16.97-3.41-3.96-6.89-6.99-9.68-9.11-7.5-12.51-8.68-27.29-3.49-43.99,3.25,1.68,11.22,6.41,17.46,15.02ZM431.23,71.61c6.59,4.69,11.47,10.72,14.62,18.01-.21.05-.41.12-.59.2l-.26.07-.23.17-.16.07-.13.14c-.31.22-.57.47-.81.75l-.18.25c-.26.36-.44.76-.56,1.14-.03.1-.05.21-.08.31-1.47,4.59-2.46,8.93-3.02,13.04-9.12-8.07-18.68-11.52-20.89-12.24h0c-.2-.08-.4-.14-.6-.18-5.31-8.26-8.14-18.42-8.41-30.39,3.61.57,12.65,2.51,21.33,8.67ZM398.28,49.21c5.86,2.16,11.03,5.25,15.48,9.25-1.94-.44-3.36-.66-4.03-.74h-.03c-.31-.06-.64-.09-.95-.08l-.23.03c-.11,0-.22.03-.35.04-.25.06-.54.13-.75.22-.14.05-.25.09-.37.16-.38.2-.68.4-.94.62l-.23.16-.16.24-.13.12-.09.16c-.21.31-.39.64-.53.97l-.08.3c-.14.42-.19.86-.17,1.25,0,.11,0,.21.02.32.13,9.92,1.9,18.16,4.68,25-.95-.31-1.9-.65-2.87-1.03-7.25-12.81-17.16-19.6-26.62-23.11-2.94-5-5.35-10.67-7.22-17,4.05-.45,14.38-1,25.53,3.11ZM374.06,28.72c7.38,2.49,13.91,6.89,19.54,13.16-11.09-2.66-20.38-1.65-22.6-1.35h0c-.36.04-.72.1-1.06.22l-.23.08c-.12.04-.24.1-.35.15-.28.15-.55.31-.77.46-.11.09-.23.17-.34.28-.35.31-.63.63-.83.94l-.21.24-.1.29-.08.18-.06.19c-.14.4-.24.81-.27,1.22l-.02.35c0,.48.05.96.18,1.39.03.12.08.22.12.34.9,3.17,1.92,6.12,3.04,8.9-.64-.24-1.26-.48-1.87-.75-4.94-2.1-9.5-5.04-13.69-8.79-.59-.54-1.18-1.09-1.76-1.66,9.71-5.76,17.23-11.37,21.37-15.85ZM321.22,27.06c1.68-4.58,2.95-8.46,3.71-10.9.44-1.37.76-2.47.98-3.23.1-.36.2-.7.28-1.05,14.45,2.53,32.96,8.23,42.77,14.16-6.02,5.98-18.17,13.91-32.25,20.95-10.34,5.18-21.09,9.62-31.64,13.13,6.48-9.2,11.97-21.71,16.14-33.08ZM285.33,5.74c17.52,0,31.03,3,34.95,6.06-3,10.57-18.71,56.12-34.21,56.12-18.79,0-33.69-45.54-35.72-55.21,5.46-4.26,18.86-6.97,34.98-6.97ZM244.45,11.15c-.05.24-.06.48-.04.73.29,3.37,4.52,18.57,11.37,32.73,3.39,7.02,6.9,12.78,10.51,17.27-30.14-9.21-58.92-25.37-69.4-35.81,10.92-6.61,32.66-12.94,47.55-14.91ZM191.81,28.72c4.14,4.48,11.67,10.09,21.38,15.85-5.18,5.05-10.96,8.79-17.33,11.19,1.11-2.77,2.13-5.73,3.04-8.9.03-.12.08-.22.11-.34.13-.43.19-.91.18-1.39v-.35c-.05-.41-.14-.82-.29-1.22l-.05-.19-.08-.18-.11-.29-.2-.24c-.2-.31-.48-.63-.83-.94-.11-.11-.23-.19-.35-.28-.21-.14-.48-.31-.75-.46-.12-.05-.25-.12-.36-.15l-.22-.08c-.34-.12-.7-.18-1.06-.21h-.02c-2.21-.31-11.51-1.31-22.59,1.35,5.63-6.27,12.15-10.67,19.53-13.16ZM167.59,49.21c11.16-4.11,21.49-3.56,25.54-3.11-1.87,6.33-4.28,12-7.22,17-9.47,3.5-19.37,10.3-26.62,23.11-.96.38-1.91.72-2.86,1.03,2.77-6.84,4.55-15.07,4.68-25,0-.11.02-.21.02-.32.02-.39-.04-.84-.17-1.25l-.09-.3c-.13-.34-.31-.66-.52-.97l-.09-.16-.14-.12-.15-.24-.22-.16c-.25-.22-.56-.42-.95-.62-.11-.06-.23-.11-.36-.16-.21-.09-.49-.16-.75-.22-.13-.02-.24-.04-.35-.04l-.22-.03c-.32,0-.64.02-.96.07h-.02c-.68.09-2.1.31-4.03.75,4.46-4,9.61-7.1,15.47-9.25ZM134.64,71.61c8.68-6.16,17.72-8.1,21.33-8.67-.27,11.97-3.09,22.13-8.41,30.39-.21.05-.41.1-.6.18h-.02c-2.2.73-11.77,4.17-20.89,12.24-.56-4.1-1.54-8.44-3.02-13.04-.02-.1-.04-.21-.08-.31-.11-.37-.3-.77-.56-1.14l-.19-.25c-.23-.27-.5-.53-.81-.75l-.13-.14-.16-.07-.23-.17-.26-.07c-.18-.08-.38-.15-.6-.2,3.15-7.3,8.02-13.32,14.62-18.01ZM100.92,110.05c6.25-8.6,14.22-13.33,17.46-15.02,5.19,16.7,4.01,31.48-3.49,43.99-2.77,2.12-6.26,5.15-9.68,9.11-1.05-5.29-2.87-10.95-5.69-16.97-.04-.08-.08-.2-.13-.28-.15-.36-.4-.73-.71-1.06l-.22-.22c-.25-.24-.56-.46-.87-.65l-.16-.12-.17-.04-.24-.15-.28-.04c-.31-.1-.68-.15-1.11-.16-.13,0-.26,0-.39.02-.23.03-.52.06-.77.14-.12.03-.23.07-.35.11l-.18.07c-.3.13-.58.28-.84.48.98-6.95,3.58-13.37,7.83-19.21ZM79.78,151.16c5.1-9.32,12.41-15.04,15.4-17.12,7.81,17.05,8.08,32.85.79,46.94-.14.27-.28.54-.43.8-6.33-3.07-13.3-6.7-21.06-11.06.16-6.84,1.91-13.37,5.29-19.56ZM73.48,176.89c30.59,16.98,48.68,22.8,65.84,27.33-6.46,2.56-12.33,4.49-18.33,6.08-17.44,4.6-35.06,6.61-52.17,5.94.42-13.24,1.98-26.45,4.66-39.34ZM68.95,228.48c-.06-2.09-.1-4.24-.11-6.39,2.15.08,4.29.15,6.45.15,15.57,0,31.46-2.11,47.2-6.27,7.47-1.97,14.73-4.48,23.05-7.96.23,11.1,1.66,22.11,4.32,32.84-.34.11-.67.23-1.01.34-17.81,5.64-35.93,8.5-53.86,8.5-8.36,0-16.63-.64-24.62-1.89-.75-6.41-1.22-12.9-1.42-19.31ZM139.58,249.91c-3.21,3.21-7.01,6.43-11.3,9.6-1.08-2.15-1.95-4.37-2.63-6.65,4.66-.8,9.3-1.77,13.93-2.95ZM98.17,257.66c-.02-.73-.02-1.44,0-2.14.64,0,1.27-.02,1.92-.05,6.57-.18,13.17-.75,19.79-1.68,1.68,2.83,3.04,5.78,4.05,8.82-2.37,1.61-4.88,3.2-7.51,4.77-4.56,2.72-9.33,5.25-14.05,7.48-.09.04-.19.09-.28.14.02-.2.04-.41.05-.61-2.47-5.18-3.79-10.77-3.96-16.73ZM71.02,253.82c7.29,1.08,14.73,1.66,22.24,1.73-.12,5.98.8,12.67,3.73,19.45,0,.14-.02.26-.04.4-.07.68-.15,1.36-.25,2.01-6.68,2.85-13.07,5-18.44,6.18-6.11-9.23-8.54-19.18-7.24-29.76ZM94.75,323.8c-5.06-10-11.15-23.55-14.96-34.54,11.2-2.51,26.29-8.9,39.62-16.83,8.74-5.21,23.37-15.09,31.84-27.18,2.3,7.66,5.5,16.84,8.98,24.15-.16.24-.33.46-.48.69-.97,1.37-1.95,2.73-2.94,4.06-1.2,1.62-2.41,3.2-3.64,4.75-1.79,2.26-3.62,4.45-5.48,6.58-.94,1.07-1.88,2.13-2.86,3.17-1.3,1.43-2.63,2.82-3.98,4.18-5.08,5.16-10.4,9.82-15.91,13.98-1.71,1.29-3.45,2.54-5.2,3.73-2.04,1.4-4.09,2.72-6.19,3.97-5.05,3.05-10.25,5.71-15.59,7.98-1.06.46-2.13.89-3.2,1.31ZM122.02,352.49c-.38,0-.79.11-1.19.26l-.27.12c-.33.15-.62.34-.9.57l-.16.1-.11.14-.22.16-.13.25c-.2.24-.37.55-.52.94-.06.12-.09.25-.13.36-.02.07-.04.15-.05.24-8.51-5.8-14.52-13.55-17.94-23.18-.16-.44-.3-.86-.44-1.3-.15-.43-.27-.86-.4-1.29-.08-.27-.16-.55-.24-.83-.06-.23-.13-.46-.18-.67,6.82-2.82,13.41-6.24,19.77-10.25h0c1.35,1.01,2.64,2.07,3.87,3.19.22.2.44.39.65.59-.22-.21-.44-.42-.66-.62.45.4.89.81,1.32,1.23.04.04.07.07.11.12-.04-.03-.07-.06-.11-.1.06.05.12.12.18.18.36.35.72.7,1.07,1.06h0c.27.28.54.57.81.87,0,0,.02,0,0,.02.26.29.53.58.79.87s.52.59.76.89h0c.07.1.16.18.22.27,0,0,0,.02.02.02,0,0,0,0,0,.02l.04.04c.16.18.32.38.46.57h0c.07.1.15.18.21.27.03.03.05.06.07.09t.02.02c.15.18.29.36.43.55.36.47.72.95,1.06,1.45.61.87,1.19,1.75,1.75,2.66v.02c-.06.16-.12.34-.16.5-.04.11-.06.23-.07.34l-.04.2c-.03.31-.03.62,0,.93v.02c.03.39.08,1.05.18,1.91.38,3.27,1.49,9.61,4.65,16.54-4.34-.55-9.08-.69-14.25-.34-.11,0-.21,0-.31,0ZM133.44,377.21c-3.08-3.66-5.29-7.48-6.86-10.85-1.37-2.95-2.24-5.56-2.77-7.44-.17-.58-.3-1.1-.41-1.54,4.03-.24,7.88-.16,11.52.23,1.55.16,3.05.38,4.51.66,2.04.38,4.01.87,5.91,1.47.47.15.96.3,1.42.46,7.47,2.59,13.86,6.88,19.14,12.83.23.25.44.52.66.77,1.13,1.33,2.12,2.67,3.02,3.98-.25.1-.51.19-.76.29-.23.09-.46.17-.68.27-.33.12-.65.24-.96.37-.23.07-.46.16-.68.25h0c-.47.18-.95.36-1.41.55-.35.14-.72.28-1.07.43-.56.22-1.12.45-1.67.67-.11.05-.22.09-.33.14-.38.16-.76.32-1.14.48-.17.06-.34.14-.51.21-.31.12-.61.25-.92.38-.51.21-1.02.43-1.53.65-.65.28-1.29.56-1.94.85-1.04.45-2.06.92-3.07,1.38-2.56,1.17-5.08,2.37-7.55,3.61.45-.24.89-.46,1.34-.67-5.06-2.5-9.49-5.98-13.27-10.47ZM157.4,430.29c-38.27,0-91.12,10.22-122.04,20.34l8.97-25.6-26.07-9.14c32.57-9.87,82.18-19.57,124.17-21.56.04.04.07.08.12.12,1.1.86,2.22,1.71,3.34,2.54.43.33.86.64,1.28.95.69.52,1.38,1.03,2.08,1.53.57.41,1.15.81,1.72,1.22.57.4,1.13.8,1.7,1.2.69.48,1.4.95,2.1,1.43.45.3.89.61,1.35.91.85.56,1.7,1.12,2.56,1.67.31.2.62.41.93.61.97.62,1.95,1.23,2.93,1.84.2.13.39.25.59.37,1.06.66,2.13,1.29,3.19,1.93.13.07.25.15.36.23,1.14.66,2.27,1.33,3.42,1.97.05.04.12.07.18.11,1.2.68,2.41,1.36,3.62,2.01,0,0,0,0,0,0,8.52,4.64,17.33,8.74,26.38,12.28l15.45,7.73c-18.67-3.09-38.43-4.69-58.34-4.69ZM284.97,405.51c-29.82,0-58.6,5.52-83.35,15.97-18.41-7.29-35.79-16.96-51.75-28.83,8.69-4.25,17.85-8.06,27.39-11.42,3.9-1.38,7.87-2.67,11.89-3.89,2.67-.82,5.38-1.6,8.1-2.34.84-.23,1.67-.46,2.52-.67.81-.22,1.62-.43,2.43-.63.54-.15,1.1-.29,1.66-.42h0c8.71-2.18,17.65-4.01,26.73-5.47.7-.12,1.41-.23,2.12-.33,1.31-.21,2.63-.41,3.95-.58,1.78-.26,3.57-.5,5.36-.72,4.92-.63,9.88-1.15,14.86-1.55.32-.03.64-.05.95-.08,2.14-.16,4.28-.32,6.42-.44,1.34-.09,2.67-.16,4.02-.22,5.54-.27,11.11-.41,16.69-.41,3.12,0,6.23.05,9.34.13,1.12.03,2.24.06,3.35.11,3.38.12,6.76.29,10.12.51,4.89.33,9.77.75,14.61,1.29.85.09,1.68.18,2.52.28,1.59.18,3.18.38,4.77.59h0c1.46.19,2.89.39,4.34.6.63.08,1.25.18,1.87.28,8.59,1.27,17.04,2.89,25.31,4.82,1.01.23,2.01.46,3.01.71,1.44.35,2.85.7,4.27,1.07h0c.23.05.46.11.68.17,2.58.67,5.15,1.37,7.7,2.11,4.16,1.2,8.26,2.48,12.3,3.85.77.25,1.55.53,2.31.8h0c.8.26,1.59.55,2.38.83,6.93,2.48,13.66,5.2,20.15,8.16,2.04.92,4.05,1.86,6.04,2.84-.08.06-.17.13-.25.18-15.87,11.78-33.18,21.39-51.5,28.64-24.75-10.45-53.53-15.97-83.34-15.97ZM534.58,450.63c-30.93-10.12-83.79-20.34-122.05-20.34-20.05,0-39.93,1.63-58.72,4.76l16.82-8.2s.04-.02.07-.03c1.24-.49,2.46-.99,3.69-1.5.03-.02.05-.03.08-.04,1.24-.52,2.46-1.05,3.69-1.58.02,0,.04-.02.06-.03,1.23-.54,2.45-1.08,3.67-1.65.03,0,.05-.02.08-.04,1.21-.55,2.41-1.12,3.61-1.7.04-.02.08-.04.12-.05,1.19-.56,2.37-1.15,3.55-1.74.06-.04.13-.07.19-.1,1.15-.58,2.29-1.16,3.43-1.76.1-.05.19-.1.29-.16,1.1-.58,2.21-1.16,3.3-1.76.14-.08.27-.15.41-.23,1.05-.58,2.1-1.16,3.15-1.76.19-.11.37-.22.56-.32.99-.57,1.99-1.15,2.97-1.74.24-.14.48-.29.72-.43.93-.56,1.86-1.12,2.77-1.69.3-.18.6-.37.9-.55.85-.54,1.71-1.07,2.56-1.63.37-.24.74-.48,1.1-.72.78-.51,1.56-1.01,2.34-1.53.46-.3.9-.62,1.36-.92.68-.46,1.36-.93,2.05-1.39.55-.39,1.11-.79,1.66-1.18.57-.4,1.14-.8,1.7-1.21.7-.5,1.39-1.01,2.08-1.52.42-.31.84-.62,1.26-.93,1.11-.83,2.21-1.66,3.31-2.52.05-.04.07-.08.12-.12,42,1.99,91.6,11.69,124.18,21.56l-26.07,9.14,8.98,25.6Z"/><path class="cls-1" d="M151.26,385.5c.56-.26,1.11-.52,1.66-.76.23-.11.45-.22.67-.32-.78.35-1.56.72-2.34,1.08Z"/><polygon class="cls-1" points="191.03 392.3 197.75 409.36 201.61 407.83 194.91 390.77 191.03 392.3"/><path class="cls-1" d="M216.17,387.36l-.95-3.17-2.63.79-1.02.31,1.54,5.1c.11.36.22.72.33,1.06.69,2.24,1.39,4.25,2.22,6.19l-.07.03c-1.41-1.74-3.08-3.62-4.7-5.15l-5.56-5.35-4.64,1.4,5.29,17.56,3.65-1.1-1.58-5.26c-.86-2.87-1.67-5.36-2.5-7.63l.11-.04c1.45,1.81,3.29,3.7,4.91,5.28l5.81,5.61,4.14-1.25-2.36-7.82-1.97-6.57Z"/><path class="cls-1" d="M230.18,388.63c-.16-.03-.33-.05-.49-.08-.34-.05-.65-.1-.95-.16-1.85-.32-2.72-.69-2.92-1.65-.08-.36-.02-.76.21-1.11.12-.19.28-.36.5-.54.36-.27.86-.5,1.52-.64,1.59-.35,2.88-.17,3.7,0,.08.02.16.03.24.05l.17-3.46c-.46-.1-.96-.17-1.56-.19h0c-.89-.04-1.95.03-3.2.3-1.34.28-2.46.77-3.34,1.4-.05.04-.1.07-.15.11-1.8,1.35-2.57,3.29-2.13,5.32.27,1.29.96,2.22,1.98,2.89h0c1.05.71,2.47,1.13,4.13,1.36,2.28.28,3.28.76,3.51,1.85.25,1.17-.56,2.16-2.43,2.56-.87.19-1.76.24-2.58.18-.81-.04-1.56-.16-2.15-.33l-.1,3.53c1.13.34,3.27.46,5.32.02,1.78-.38,3.14-1.03,4.12-1.84,1.42-1.16,2.05-2.67,2-4.23,0-.35-.05-.71-.13-1.07-.51-2.39-2.18-3.72-5.29-4.27Z"/><polygon class="cls-1" points="250.91 380.91 250.39 377.47 244.89 378.3 239.73 379.08 236.42 379.58 236.75 381.72 236.95 383.02 238.62 382.76 238.63 382.76 241.46 382.34 241.85 382.28 242.03 383.51 242.04 383.53 242.24 384.86 243.47 393.04 244.07 396.96 248.18 396.34 248 395.13 245.96 381.65 246.54 381.56 250.91 380.91"/><polygon class="cls-1" points="259.72 385.31 258.82 376.61 254.68 377.04 256.57 395.28 260.71 394.85 259.85 386.48 259.72 385.31"/><polygon class="cls-1" points="277.34 377.66 277.22 375.66 277.2 375.37 276.38 375.42 272.41 375.63 263.1 376.15 263.3 379.63 268.24 379.35 268.46 383.19 268.57 385.28 268.84 390.12 268.93 391.62 269.07 394.18 272.61 393.99 273.23 393.95 273.07 391.17 272.61 382.86 272.53 381.43 272.4 379.12 275.58 378.94 277.4 378.84 277.34 377.67 277.34 377.66"/><path class="cls-1" d="M292.64,377.25l-.08,4.72v.6s-.07,3.47-.07,3.47c-.05,3.21-1.27,4.71-3.45,4.67-2.09-.04-3.32-1.65-3.27-4.78l.06-3.68.06-4.02.02-1.01v-.3l.03-1.59-2.69-.05-1.44-.03-.03,1.44-.05,3.38v.63s-.04,1.45-.04,1.45v.32l-.05,3.08c-.06,3.48.86,5.8,2.6,7.12,1.17.88,2.71,1.32,4.58,1.36,3.38.05,5.83-1.21,7-3.95h0c.47-1.1.75-2.44.78-4.03,0-.06,0-.13,0-.19l.05-2.93.11-6.13.02-1.27-4.13-.06-.03,1.81Z"/><polygon class="cls-1" points="301.4 375.77 301.4 375.82 301.09 379.24 306.02 379.68 305.54 385.07 305.43 386.24 304.69 394.47 308.84 394.84 310.17 380.05 315.15 380.5 315.46 377.03 301.52 375.78 301.4 375.77"/><polygon class="cls-1" points="321.24 377.82 319.96 377.62 319.36 381.54 319.35 381.55 317.26 395.09 317.16 395.75 324.97 396.95 328.73 397.53 329.21 394.37 329.22 394.37 329.24 394.16 321.79 393.02 321.79 393.02 322.46 388.72 327.53 389.5 329.13 389.74 329.37 388.13 329.64 386.41 322.97 385.38 323.55 381.62 324.68 381.79 328.05 382.31 330.59 382.7 330.89 380.74 331.11 379.34 326.42 378.63 321.24 377.82"/><path class="cls-1" d="M354.1,384.35c-.33-.13-.66-.24-1.02-.34-5.19-1.41-9.71,1.42-11.2,6.9,0,0,0,.03,0,.04-.5,1.87-.55,3.66-.16,5.24.68,2.88,2.77,5.1,6.08,5.99,4.75,1.29,9.53-.88,11.14-6.81.8-2.95.52-5.76-.86-7.9-.87-1.37-2.19-2.45-3.97-3.12ZM354.7,394.28c-.86,3.2-3.06,5.54-5.89,4.77-1.94-.52-2.92-2.21-3.01-4.3-.04-.86.07-1.8.34-2.76.42-1.57,1.15-2.91,2.09-3.8.56-.54,1.18-.91,1.88-1.07h0c.61-.16,1.25-.15,1.95.03,1.49.41,2.36,1.46,2.73,2.8.38,1.3.3,2.87-.1,4.34Z"/><polygon class="cls-1" points="360.06 405.52 363.96 406.98 366.55 400.07 372.72 402.39 373.89 399.26 367.72 396.95 369.21 393 375.8 395.47 376.99 392.29 366.5 388.35 360.06 405.52"/><polygon class="cls-1" points="51.46 417.21 55.71 434.26 59.7 433.49 55.45 416.44 51.46 417.21"/><path class="cls-1" d="M71.34,413.43l1.2,4.96c.63,2.58,1.26,4.87,2.07,7.08h-.08c-1.28-1.76-2.81-3.7-4.32-5.3l-5.14-5.58-4.65.87,4.13,17.07,3.66-.68-1.24-5.12c-.67-2.79-1.31-5.21-1.99-7.44l.1-.02c1.32,1.84,3.02,3.8,4.51,5.46l5.37,5.85,4.15-.77-4.13-17.07-3.65.68Z"/><path class="cls-1" d="M93.05,411.31c-1.98-.92-4.3-1.15-7.68-.55-1.96.34-3.87.81-5.28,1.3l3.88,16.8c1.02-.05,2.52-.18,4.62-.55,3.4-.6,6.09-1.81,7.61-3.63,1.38-1.7,2.09-4.17,1.33-7.44-.7-3.02-2.33-4.92-4.47-5.92ZM88.73,425.14c-.5.09-1.05.16-1.43.17l-2.58-11.19c.35-.14.91-.32,1.77-.47,3.46-.61,6.01.9,6.83,4.45.95,4.09-.97,6.43-4.58,7.04Z"/><polygon class="cls-1" points="99.9 408.39 103.64 425.53 107.66 424.88 103.92 407.74 99.9 408.39"/><path class="cls-1" d="M113.35,406.28l-2.19,17.94,4.17-.56.43-4.59,5.1-.68,2.21,4.24,4.36-.58-8.8-16.47-5.28.7ZM115.81,416.11l.36-3.82c.08-1,.12-2.37.17-3.4h.08c.45.95,1.01,2.19,1.52,3.16l1.78,3.53-3.91.52Z"/><path class="cls-1" d="M140.12,403.87l.57,5.04c.29,2.62.64,4.96,1.16,7.23h-.08c-1.05-1.9-2.33-4.01-3.63-5.77l-4.43-6.15-4.76.27,1.95,17.33,3.74-.21-.58-5.2c-.32-2.83-.65-5.29-1.04-7.58h.11c1.08,1.98,2.54,4.12,3.81,5.94l4.62,6.44,4.25-.24-1.95-17.34-3.74.21Z"/><path class="cls-1" d="M425.07,412.31c-2.34-.77-3.36-1.24-3.3-2.3.04-.86.96-1.66,2.77-1.71,1.81-.05,3.1.42,3.83.7l1.06-3.12c-1.04-.42-2.53-.76-4.67-.7-4.33.12-7.11,2.38-7.26,5.27-.13,2.49,1.82,3.95,4.87,4.9,2.16.64,3,1.25,2.95,2.28-.06,1.11-1.11,1.87-3.03,1.92-1.79.05-3.51-.43-4.58-.93l-1.01,3.19c1.01.5,3.07.97,5.19.92,5.1-.14,7.56-2.64,7.71-5.49.12-2.39-1.3-3.91-4.51-4.93Z"/><path class="cls-1" d="M431.99,413.97c-.59,4.83,2.23,8.62,8.59,8.86,2.24.08,4.01-.25,4.81-.55l-.26-3.04c-.86.27-2.28.47-3.53.42-3.71-.14-5.63-2.36-5.22-5.75.46-3.77,3.28-5.51,6.55-5.39,1.47.05,2.61.4,3.39.76l1.24-2.99c-.66-.4-2.28-.84-4.44-.92-5.57-.21-10.43,2.82-11.14,8.61Z"/><polygon class="cls-1" points="447.72 423.04 451.86 423.43 454.95 406.54 450.81 406.15 447.72 423.04"/><polygon class="cls-1" points="469.36 411.44 470.02 408.32 458.86 406.96 455.27 423.8 466.84 425.21 467.5 422.08 460.05 421.18 460.9 417.18 467.57 417.99 468.23 414.89 461.56 414.08 462.31 410.58 469.36 411.44"/><path class="cls-1" d="M483.49,415.07c-.58,2.54-1.01,4.83-1.24,7.08h-.08c-.4-2.02-.98-4.25-1.67-6.17l-2.34-6.66-4.78-.64-3.8,16.81,3.76.5,1.14-5.04c.62-2.74,1.11-5.14,1.48-7.38h.11c.41,2.1,1.14,4.41,1.8,6.37l2.43,6.98,4.27.57,3.8-16.81-3.76-.5-1.1,4.89Z"/><path class="cls-1" d="M497.75,426.79c-3.6-.67-5.13-3.16-4.2-6.5,1.04-3.71,4.06-5.05,7.25-4.46,1.43.26,2.49.77,3.19,1.24l1.68-2.81c-.58-.5-2.1-1.17-4.19-1.55-5.41-1-10.63,1.34-12.23,7.03-1.33,4.75.83,8.95,7.01,10.09,2.17.4,3.95.31,4.78.13l.23-3.08c-.88.15-2.3.15-3.52-.08Z"/><polygon class="cls-1" points="518.87 420.72 520.05 417.7 509.41 414.61 503.04 430.88 514.06 434.08 515.25 431.06 508.14 429 509.65 425.14 516.01 426.99 517.19 423.99 510.83 422.15 512.15 418.77 518.87 420.72"/><path class="cls-1" d="M155.02,496.15h-3.54c-.06-7.33-7.15-13.22-15.93-13.22-5.65.06-10.22,3.25-10.22,7.21,0,1.62.84,3.55,2.4,5.41h9.02c-1.33-1.08-2.05-3.07-2.05-5.41-.06-2.83,1.56-5.11,3.55-5.11,3,0,5.41,4.99,5.41,11.12h-3.54s-37.14,0-37.14,0h-58.05v3.01h3.01v12.32h-7.21v-11.72c0-3.97-4.03-7.21-9.02-7.21-4.99.06-9.02,3.25-9.02,7.21s4.03,7.21,9.02,7.21h1.2v4.51h-1.8c-3.67,0-6.61,2.29-6.61,5.11.06,3.49,3.79,6.31,8.42,6.31,4.33,0,7.82-2.82,7.82-6.31v-2.7h7.21v9.31c.06,1.33-1.32,2.41-3.01,2.41v1.81h13.83v-1.81c-1.68,0-3.01-1.08-3.01-2.41v-24.04h4.75s3.54,0,3.54,0v24.04c.06,1.33-1.32,2.41-3.01,2.41v1.81h13.83v-1.81c-1.68,0-3-1.08-3-2.41v-24.04h10.21c4.81,0,8.72,4.03,8.72,9.02-.06,4.51-3.79,8.11-8.42,8.11-1.98,0-3.79-.3-5.41-.9l-.6,1.81c1.62,0,4.09,2.16,7.81,6.01,2.58,2.71,5.41,4.21,7.82,4.21,3.49,0,6.85-1.92,9.02-5.11l-1.2-1.5c-1.08,1.33-2.77,2.1-4.51,2.1-1.98.07-4.51-1.62-6.91-4.5,6.79-1.14,11.78-5.23,11.78-9.62-.06-4.93-5.17-9.13-11.78-9.62h39.18v6.31c-2.05-1.38-5.17-2.1-9.02-2.1-8,0-14.42,5.53-14.42,12.33.06,4.27,2.22,8.53,6.01,11.72l7.21-3.61c-2.46-1.99-3.85-5.66-3.85-9.92,0-4.51,3.07-8.12,6.85-8.12,2.77,0,5.35.84,7.21,2.41v15.02c.06,1.33-1.32,2.41-3.01,2.41v1.81h13.83v-1.81c-1.68,0-3.01-1.08-3.01-2.41v-24.04h3.54s4.75,0,4.75,0v24.65c.06,1.02-1.32,1.8-3.01,1.8v1.81h13.83v-1.81c-1.68.06-3-.78-3-1.8v-24.65h10.33c3.49,0,6.31,2.16,6.31,4.81s-2.83,4.81-6.31,4.81c-2.29.06-4.03-.18-5.11-.6-.06,8.48,5.89,15.33,13.22,15.33,4.81.06,8.9-2.05,10.82-5.41v5.11c0,1.32-1.45,2.4-3.25,2.4v1.81h14.07v-1.81c-1.69,0-3-1.08-3-2.4v-24.04h4.75v-3h-38.29ZM32.92,516.58c.06,1.51-.79,2.7-1.8,2.7-1.33,0-2.41-1.2-2.41-2.7s1.08-2.7,2.41-2.7h1.8v2.7ZM32.92,503.06c0,.84-.54,1.51-1.2,1.51s-1.2-.66-1.2-1.51v-6.61c0-.84.54-1.5,1.2-1.5s1.2.66,1.2,1.5v6.61ZM180.74,499.15v15.33c-1.2,3.06-4.03,5.11-7.21,5.11-4.15,0-7.51-4.03-7.51-9.01,6.31,0,11.48-2.95,11.48-6.62-.06-2.1-2.7-4.15-6.37-4.81h9.62Z"/><path class="cls-1" d="M220.28,495.55c-.48-.54-.24-1.68-.24-4.21,0-3.67,2.95-6.61,6.55-6.61,7.03,0,13.29,4.33,15.63,10.82h7.82c-2.88-7.94-12.15-13.22-23.15-13.22-8.95,0-16.23,4.03-16.23,9.02.06,1.32.66,2.82,1.8,4.21h7.82Z"/><path class="cls-1" d="M318.71,496.15h-93.68s-17.31,0-17.31,0v3.01h4.75v24.04c.06,1.32-1.32,2.4-3,2.4v1.81h13.82v-1.81c-1.68,0-3-1.08-3-2.4v-24.04h4.75s21.99,0,21.99,0v6.61c-1.92-2.28-5.23-3.61-9.02-3.61-6.61.06-12.03,4.87-12.03,10.82.06,5.95,5.41,10.82,12.03,10.82,3.79,0,7.09-1.33,9.02-3.61v3c.06,1.33-1.32,2.41-3,2.41v1.81h13.82v-1.81c-1.68,0-3-1.08-3-2.41v-24.04h35.22v4.81c-6.49,0-12.74-2.4-19.23-2.4-5.29,0-9.62,2.94-9.62,6.61,0,3.31,3.49,6.01,7.82,6.01h5.11c2.46,0,4.51,1.74,4.51,3.91-.06,2.82-3.24,5.1-7.21,5.1-4.27,0-7.87-.84-10.22-2.4l-1.2,2.1c3.19,1.15,5.96,3.13,8.12,5.71,2.23,2.65,5.41,4.21,8.72,4.21,2.52,0,4.93-1.5,6.31-3.91l-1.2-1.2c-1.26.71-1.93,1.08-2.35,1.08-1.62-.06-3.42-1.21-4.87-3.19h3.31c5.53-.06,9.98-3.25,9.98-7.21,0-3.67-3.12-6.61-6.97-6.61h-7.21c-1.8,0-3.25-1.63-3.25-3.61s1.87-3.61,4.15-3.61c5.17,0,10.1,2.4,15.33,2.4v16.23c.06,1.33-1.32,2.41-3,2.41v1.81h13.82v-1.81c-1.68,0-3-1.08-3-2.41v-24.04h8.28v24.04c.06,1.33-1.32,2.41-3.01,2.41v1.81h13.83v-1.81c-1.68,0-3-1.08-3-2.41v-24.04h3.54s29.82,0,29.82,0v8.12c-4.45-2.58-10.04-3.91-16.23-3.91-6.31.06-11.42,4.87-11.42,10.82s5.12,10.22,11.42,10.22,11.18-4.57,11.18-10.22c0-3.18-1.62-6.01-4.27-7.51,4.51.78,7.69,1.92,9.32,3.3v13.22c.06,1.32-1.33,2.4-3.01,2.4v1.81h13.82v-1.81c-1.68,0-3-1.08-3-2.4v-24.04h4.75v-3h-41.16ZM247.02,517.79c-1.62,1.56-3.55,2.41-5.41,2.41-3.42-.07-6.25-3.25-6.25-7.22.06-3.97,2.82-7.21,6.25-7.21,1.92-.06,3.91.84,5.41,2.41v9.62ZM331.08,522c-1.32,0-2.04-3.49-2.04-7.81,0-4.63.6-8.42,2.04-8.42,1.45.06,1.81,3.79,1.81,8.42,0,4.32-.48,7.81-1.81,7.81Z"/><path class="cls-1" d="M410.4,490.44c1.99,0,3.61-1.62,3.61-3.61s-1.62-3.61-3.61-3.61-3.61,1.62-3.61,3.61,1.62,3.61,3.61,3.61Z"/><path class="cls-1" d="M437.75,522.9c-1.8.06-4.21-1.63-6.61-4.51,6.79-1.26,11.78-5.41,11.78-9.92,0-4.75-5.41-8.84-12.38-9.32h19.84v-3.01h-76.08v3h6.07c5.17,0,9.32,4.03,9.32,9.02.06,4.33-4.15,7.81-9.32,7.81-1.92.06-3.43-.18-4.51-.6l-.6,1.81c2.22.84,4.63,2.7,6.91,5.41,2.59,3.06,5.53,4.81,8.12,4.81,3.31.06,6.73-1.75,9.32-4.81l-1.5-1.5c-.9,1.14-2.71,1.8-4.81,1.8-1.38.07-3.61-1.62-6.01-4.5,6.55-.3,11.78-4.51,11.78-9.62-.06-4.93-5.17-9.13-11.78-9.62h19.23v12.92c-1.08,1.02-2.34,1.57-3.61,1.57s-2.76-.42-4.21-1.26l-.6,2.4c1.38.84,3.07,1.26,4.81,1.26,1.26-.06,2.52-.36,3.61-.96v8.11c.06,1.33-1.32,2.41-3,2.41v1.81h13.83v-1.81c-1.68,0-3.01-1.08-3.01-2.41v-24.04h3.83s5.17,0,5.17,0c5.65.06,10.22,3.79,10.22,8.42s-4.45,8.42-9.92,8.42c-1.5.06-2.82-.18-3.91-.6l-.6,1.81c2.22.84,4.63,2.7,6.91,5.41,2.58,3.06,5.53,4.81,8.11,4.81,2.71.06,5.83-1.75,8.42-4.81l-1.2-1.8c-1.14,1.32-2.46,2.1-3.61,2.1Z"/><path class="cls-1" d="M446.59,512.56c-1.26,0-2.53-.36-3.73-1.08l-.9,2.1c1.56.91,3.13,1.38,4.51,1.38,1.8,0,3.31-.36,4.51-1.08l-.6-2.41c-1.2.72-2.52,1.08-3.79,1.08Z"/><path class="cls-1" d="M547.24,499.15v-3h-41.16s-16.1,0-16.1,0h-14.97v3.01h2.4v15.93c-.9,3.01-4.69,5.12-9.32,5.12s-8.71-2.95-8.71-6.62c8.66,0,15.63-5.11,15.63-11.42,0-3.97-5.11-7.21-11.42-7.21-5.65.06-10.22,3.24-10.22,7.21,0,4.33,4.57,7.82,10.22,7.82-1.33,1.14-4.03,1.8-7.51,1.8-2.35,0-4.09-.3-5.11-.9-.06,7.63,5.89,13.82,13.22,13.82,6.01-.06,10.94-2.05,13.22-5.41v3.91c.06,1.33-1.32,2.41-3,2.41v1.81h13.82v-1.81c-1.68,0-3-1.08-3-2.41v-24.04h4.75s3.53,0,3.53,0v24.04c.06,1.33-1.32,2.41-3.01,2.41v1.81h13.83v-1.81c-1.68,0-3-1.08-3-2.41v-24.04h3.54s29.82,0,29.82,0v8.12c-4.45-2.58-10.04-3.91-16.23-3.91-6.31.06-11.42,4.87-11.42,10.82s5.12,10.22,11.42,10.22,11.18-4.57,11.18-10.22c0-3.18-1.62-6.01-4.27-7.51,4.51.78,7.69,1.92,9.32,3.3v13.22c.06,1.32-1.33,2.4-3.01,2.4v1.81h13.82v-1.81c-1.68,0-3-1.08-3-2.4v-24.04h4.75ZM461.18,505.46v-6.01c.06-1.14,1.45-2.11,3.18-2.11,1.57.06,2.83.96,2.83,2.11v6.01c0,1.14-1.26,2.11-2.83,2.11-1.74-.06-3.18-.96-3.18-2.11ZM518.45,522c-1.32,0-2.04-3.49-2.04-7.81,0-4.63.6-8.42,2.04-8.42,1.45.06,1.81,3.79,1.81,8.42,0,4.32-.48,7.81-1.81,7.81Z"/></g></svg>