<?xml version="1.0" encoding="UTF-8"?><svg id="Layer_2" xmlns="http://www.w3.org/2000/svg" viewBox="0 0 568 500.12"><defs><style>.cls-1{fill:#1185fe;}</style></defs><g id="Layer_1-2"><path class="cls-1" d="M123.12,33.66c65.12,48.89,135.16,148.02,160.88,201.21,25.72-53.19,95.76-152.32,160.88-201.21,46.99-35.28,123.12-62.57,123.12,24.28,0,17.35-9.95,145.71-15.78,166.55-20.27,72.45-94.15,90.93-159.88,79.75,114.88,19.55,144.1,84.31,80.99,149.07-119.86,122.99-172.27-30.86-185.7-70.28-2.46-7.23-3.61-10.61-3.63-7.73-.02-2.88-1.17.51-3.63,7.73-13.43,39.42-65.84,193.27-185.7,70.28-63.11-64.76-33.89-129.52,80.99-149.07-65.72,11.18-139.6-7.29-159.88-79.75C9.95,203.66,0,75.29,0,57.95,0-28.91,76.13-1.61,123.12,33.66Z"/></g></svg>